<svg xmlns="http://www.w3.org/2000/svg" xmlns:xlink="http://www.w3.org/1999/xlink" preserveAspectRatio="xMidYMid meet" version="1.0" viewBox="0.0 0.0 481.6 340.9" zoomAndPan="magnify" style="fill: rgb(0, 0, 0);" original_string_length="18929" width="410.376669719933px" height="290.2482264019162px"><defs><clipPath id="__id20_stza873phi"><path d="M 0 0 L 481.589844 0 L 481.589844 340.890625 L 0 340.890625 Z M 0 0"/></clipPath></defs><g><g id="__id21_stza873phi"><path d="M 453.636719 25.253906 C 453.476562 25.726562 426.546875 76.835938 393.507812 123.824219 C 362.953125 167.273438 311.296875 219.464844 238.710938 221.34375 C 237.417969 221.375 236.125 221.390625 234.847656 221.390625 C 164.347656 221.394531 116.988281 171.164062 89.515625 128.582031 C 59.28125 81.722656 45.980469 33.785156 45.847656 33.304688 L 43.175781 23.515625 L 50.230469 26.058594 C 83.035156 90.203125 144.351562 139.507812 179.4375 159.316406 C 212.3125 177.890625 256.601562 172.710938 287.085938 161.679688 C 378.460938 128.617188 440.808594 29.019531 441.351562 28.019531 L 453.636719 25.253906" style="fill: rgb(7, 12, 23);"/></g><g id="__id22_stza873phi"><path d="M 37.730469 287.4375 L 50.613281 292.011719 L 64.085938 28.019531 L 36.375 33.027344 Z M 453.636719 28.019531 L 449.167969 307.371094 L 434.558594 307.371094 L 429.066406 28.019531 L 453.636719 28.019531" style="fill: rgb(122, 50, 52);"/></g><g clip-path="url(#__id20_stza873phi)" id="__id23_stza873phi"><path d="M 439.101562 294.273438 C 421.390625 308.925781 386.148438 329.566406 386.148438 329.566406 C 386.148438 329.566406 435.230469 355.046875 481.589844 329.566406 Z M 0 315.648438 C 0 315.648438 43.699219 344.667969 84.96875 315.648438 L 47.140625 275.460938 C 31.375 292.144531 0 315.648438 0 315.648438 Z M 441.589844 43.757812 C 453.675781 43.757812 463.472656 33.960938 463.472656 21.878906 C 463.472656 9.792969 453.675781 -0.00390625 441.589844 -0.00390625 C 429.507812 -0.00390625 419.710938 9.792969 419.710938 21.878906 C 419.710938 33.960938 429.507812 43.757812 441.589844 43.757812 Z M 26.621094 21.878906 C 26.621094 9.792969 36.417969 -0.00390625 48.503906 -0.00390625 C 60.585938 -0.00390625 70.382812 9.792969 70.382812 21.878906 C 70.382812 33.960938 60.585938 43.757812 48.503906 43.757812 C 36.417969 43.757812 26.621094 33.960938 26.621094 21.878906" style="fill: rgb(156, 96, 29);"/></g><g id="__id24_stza873phi"><path d="M 401.40625 94.660156 C 398.15625 95.726562 395.230469 97.488281 393.246094 100.328125 C 389.792969 105.269531 389.273438 111.617188 387.183594 117.148438 C 384.429688 124.421875 378.960938 130.710938 370.976562 132.117188 C 368.90625 132.480469 366.914062 132.363281 364.851562 132.019531 C 363.976562 131.875 363.347656 131.609375 362.570312 132.039062 C 361.851562 132.4375 361.296875 133.433594 360.894531 134.109375 C 358.832031 137.589844 358.859375 141.710938 358.207031 145.582031 C 357.558594 149.449219 356.171875 153.117188 352.875 155.476562 C 349.59375 157.824219 345.285156 158.644531 341.324219 158.101562 C 338.027344 157.652344 335.121094 156.046875 332.109375 154.746094 C 331.117188 154.316406 329.351562 153.355469 328.234375 153.734375 C 327.050781 154.136719 325.832031 156.445312 325.265625 157.539062 C 321.414062 164.984375 322.984375 174.585938 316.289062 180.65625 C 313.523438 183.164062 309.765625 184.433594 306.046875 184.097656 C 302.292969 183.761719 299.070312 181.699219 295.828125 179.964844 C 292.414062 178.140625 288.816406 176.683594 285.40625 179.324219 C 281.570312 182.296875 281.851562 186.667969 280.664062 190.902344 C 278.597656 198.289062 270.425781 200.246094 263.675781 198.867188 C 259.785156 198.070312 256.460938 196.089844 252.984375 194.269531 C 249.136719 192.257812 244.378906 189.761719 240.460938 192.839844 C 237.363281 195.273438 235.144531 198.632812 231.921875 200.941406 C 228.734375 203.230469 224.84375 204.488281 220.933594 204.675781 C 213.027344 205.054688 207.304688 200.878906 203.039062 194.59375 C 199.597656 189.519531 195.847656 181.199219 188.644531 181.230469 C 184.832031 181.246094 181.136719 183.007812 177.496094 183.957031 C 173.820312 184.917969 169.863281 185.460938 166.1875 184.222656 C 160.359375 182.257812 157.878906 176.476562 156.011719 171.101562 C 154.207031 165.898438 152.667969 158.667969 147.273438 155.949219 C 143.550781 154.070312 139.035156 155.050781 135.042969 155.09375 C 131.433594 155.136719 127.71875 154.597656 124.828125 152.269531 C 119.695312 148.136719 119.675781 140.582031 118.058594 134.734375 C 117.191406 131.589844 115.8125 128.367188 112.78125 126.765625 C 109.242188 124.894531 104.90625 125.316406 101.144531 124.101562 C 94.214844 121.863281 91.183594 113.777344 95.585938 107.710938 C 96.402344 106.585938 98.089844 105.988281 99.441406 106.085938 C 100.339844 106.144531 101.894531 106.765625 101.058594 107.914062 C 98.90625 110.875 98.839844 115.167969 101.039062 118.15625 C 103.394531 121.359375 107.660156 121.5 111.25 122.0625 C 114.710938 122.605469 118.175781 123.613281 120.570312 126.324219 C 124.84375 131.152344 124.542969 138.339844 126.507812 144.15625 C 127.578125 147.324219 129.460938 150.195312 132.824219 151.203125 C 136.433594 152.285156 140.5 151.339844 144.199219 151.398438 C 151.0625 151.507812 155.773438 154.695312 158.648438 160.828125 C 161.164062 166.199219 161.972656 172.59375 165.554688 177.425781 C 167.386719 179.898438 170.003906 181.628906 173.179688 181.488281 C 176.980469 181.316406 180.636719 179.546875 184.292969 178.644531 C 191.351562 176.90625 197.816406 177.980469 202.617188 183.722656 C 206.855469 188.796875 209.378906 196.039062 215.335938 199.476562 C 218.730469 201.433594 223.101562 201.957031 226.648438 200.089844 C 229.976562 198.335938 232.167969 194.957031 234.910156 192.480469 C 241.640625 186.402344 249.617188 187.234375 257.21875 191.144531 C 260.683594 192.929688 263.980469 195.097656 267.90625 195.699219 C 272.0625 196.34375 274.230469 194.523438 275.078125 190.386719 C 275.867188 186.527344 276.253906 183.050781 278.941406 179.964844 C 281.394531 177.148438 284.828125 175.300781 288.484375 174.609375 C 292.085938 173.925781 295.496094 174.632812 298.78125 176.1875 C 301.894531 177.667969 305.390625 180.652344 308.976562 180.695312 C 312.757812 180.738281 314.855469 174.992188 315.671875 172.078125 C 316.851562 167.863281 317.1875 163.429688 318.859375 159.355469 C 321.550781 152.796875 327.457031 148.589844 334.574219 150.992188 C 337.472656 151.96875 340.105469 153.6875 343.066406 154.464844 C 347.953125 155.742188 350.863281 152.808594 351.953125 148.242188 C 353.554688 141.53125 352.882812 132.792969 360.316406 129.335938 C 361.917969 128.589844 363.695312 128.222656 365.460938 128.300781 C 367.570312 128.394531 369.574219 129.25 371.6875 128.699219 C 375.566406 127.6875 378.425781 123.941406 380.144531 120.539062 C 382.863281 115.152344 383.433594 108.996094 385.902344 103.511719 C 388.734375 97.203125 394.175781 93.675781 400.582031 91.570312 C 401.414062 91.296875 403.597656 91.121094 403.921875 92.332031 C 404.265625 93.613281 402.292969 94.371094 401.40625 94.660156" style="fill: rgb(181, 151, 77);"/></g><g id="__id25_stza873phi"><path d="M 454.515625 22.507812 C 453.667969 15.757812 448.648438 9.308594 441.570312 8.59375 C 435.027344 7.933594 425.832031 11.652344 424.917969 19.007812 C 424.769531 20.203125 426.695312 20.003906 427.429688 19.890625 C 428.230469 19.765625 430.804688 19.195312 430.945312 18.066406 C 431.242188 15.679688 432.472656 13.566406 434.488281 12.230469 C 434.792969 12.027344 434.660156 12.113281 434.964844 11.949219 C 434.984375 11.9375 435.433594 11.734375 435.488281 11.699219 C 435.644531 11.644531 435.886719 11.5625 435.910156 11.550781 C 436.007812 11.523438 436.105469 11.496094 436.207031 11.46875 C 436.222656 11.46875 436.230469 11.464844 436.253906 11.460938 C 436.886719 11.339844 437.9375 11.347656 438.996094 11.660156 C 444.433594 13.257812 447.761719 18.761719 448.4375 24.136719 C 448.628906 25.664062 454.753906 24.390625 454.515625 22.507812 Z M 55.625 30.144531 C 55.175781 32.289062 61.273438 31.316406 61.6875 29.332031 C 62.871094 23.664062 62.257812 17.414062 58.648438 12.703125 C 55.175781 8.179688 49.1875 5.980469 43.605469 7.027344 C 42.523438 7.230469 40.414062 7.710938 40.136719 9.027344 C 39.863281 10.3125 41.992188 10.355469 42.726562 10.21875 C 43.035156 10.160156 43.335938 10.109375 43.644531 10.070312 C 43.78125 10.054688 43.839844 10.042969 43.863281 10.035156 C 43.894531 10.042969 43.960938 10.046875 44.105469 10.054688 C 44.601562 10.074219 44.769531 10.0625 45.261719 10.144531 C 46.300781 10.3125 47.273438 10.640625 48.222656 11.097656 C 50.289062 12.089844 52.050781 13.660156 53.355469 15.535156 C 56.273438 19.71875 56.636719 25.289062 55.625 30.144531 Z M 467.746094 327.59375 C 466.980469 326.636719 466.21875 325.675781 465.453125 324.71875 C 465.253906 324.566406 465.027344 324.476562 464.78125 324.453125 C 464.46875 324.371094 464.148438 324.34375 463.824219 324.375 C 463.414062 324.386719 463.015625 324.441406 462.621094 324.542969 C 462.195312 324.617188 461.785156 324.734375 461.382812 324.898438 C 461.144531 325.003906 460.90625 325.113281 460.667969 325.21875 C 460.289062 325.40625 459.957031 325.652344 459.664062 325.957031 C 459.585938 326.082031 459.507812 326.207031 459.425781 326.332031 C 459.335938 326.585938 459.394531 326.800781 459.601562 326.976562 C 460.363281 327.9375 461.128906 328.898438 461.894531 329.855469 C 462.09375 330.007812 462.316406 330.09375 462.5625 330.121094 C 462.878906 330.203125 463.199219 330.226562 463.523438 330.199219 C 463.929688 330.1875 464.332031 330.132812 464.722656 330.03125 C 465.148438 329.957031 465.5625 329.839844 465.964844 329.675781 C 466.203125 329.566406 466.441406 329.460938 466.679688 329.351562 C 467.054688 329.167969 467.390625 328.921875 467.683594 328.617188 C 467.761719 328.492188 467.839844 328.367188 467.917969 328.242188 C 468.011719 327.984375 467.953125 327.769531 467.746094 327.59375 Z M 451.703125 325.421875 C 451.25 324.875 450.609375 324.578125 449.914062 324.484375 C 449.132812 324.375 448.144531 324.53125 447.445312 324.90625 C 446.8125 325.242188 446.121094 325.726562 445.851562 326.425781 C 445.628906 327.003906 445.566406 327.699219 445.992188 328.214844 C 447.558594 330.097656 449.125 331.984375 450.6875 333.867188 C 451.140625 334.414062 451.78125 334.710938 452.480469 334.808594 C 453.257812 334.917969 454.25 334.757812 454.945312 334.386719 C 455.578125 334.046875 456.273438 333.566406 456.542969 332.867188 C 456.765625 332.289062 456.828125 331.59375 456.398438 331.074219 C 454.835938 329.191406 453.269531 327.304688 451.703125 325.421875 Z M 437.605469 327.765625 C 437.355469 327.246094 436.953125 327.03125 436.394531 326.90625 C 435.671875 326.746094 434.757812 326.839844 434.0625 327.042969 C 433.328125 327.257812 432.527344 327.550781 431.972656 328.089844 C 431.667969 328.390625 431.125 328.957031 431.355469 329.4375 C 432.359375 331.554688 433.367188 333.675781 434.375 335.792969 C 434.621094 336.3125 435.027344 336.527344 435.585938 336.648438 C 436.304688 336.808594 437.21875 336.71875 437.917969 336.515625 C 438.648438 336.300781 439.449219 336.007812 440.003906 335.464844 C 440.3125 335.167969 440.851562 334.597656 440.625 334.117188 C 439.617188 332 438.609375 329.882812 437.605469 327.765625 Z M 427.933594 328.097656 C 427.925781 327.886719 427.917969 327.671875 427.925781 327.457031 C 427.980469 327.144531 427.925781 326.863281 427.757812 326.613281 C 427.652344 326.324219 427.460938 326.097656 427.179688 325.941406 C 426.613281 325.550781 425.726562 325.417969 425.058594 325.488281 C 424.234375 325.578125 423.363281 325.820312 422.707031 326.34375 C 422.21875 326.730469 421.628906 327.296875 421.601562 327.96875 C 421.542969 329.65625 421.808594 331.359375 422.550781 332.886719 C 422.625 333.195312 422.785156 333.4375 423.03125 333.617188 C 423.253906 333.859375 423.53125 334.023438 423.859375 334.109375 C 424.222656 334.238281 424.597656 334.292969 424.976562 334.269531 C 425.402344 334.300781 425.820312 334.253906 426.230469 334.128906 C 426.976562 333.902344 427.78125 333.550781 428.277344 332.925781 C 428.402344 332.742188 428.527344 332.558594 428.652344 332.375 C 428.84375 332.007812 428.894531 331.617188 428.796875 331.214844 C 428.324219 330.234375 428.039062 329.179688 427.933594 328.097656 Z M 417.796875 324.84375 C 417.21875 324.578125 416.355469 324.601562 415.757812 324.695312 C 414.941406 324.824219 414.09375 325.046875 413.386719 325.480469 C 413.195312 325.613281 413.003906 325.742188 412.8125 325.871094 C 412.519531 326.089844 412.304688 326.367188 412.175781 326.710938 C 412.003906 328.472656 411.828125 330.238281 411.652344 332 C 411.574219 332.222656 411.605469 332.417969 411.75 332.578125 C 411.847656 332.792969 412.015625 332.933594 412.261719 333.003906 C 412.835938 333.265625 413.703125 333.246094 414.300781 333.152344 C 415.117188 333.023438 415.964844 332.800781 416.671875 332.363281 C 416.863281 332.234375 417.054688 332.101562 417.246094 331.972656 C 417.539062 331.757812 417.753906 331.476562 417.882812 331.136719 C 418.054688 329.371094 418.230469 327.609375 418.402344 325.84375 C 418.484375 325.621094 418.453125 325.429688 418.308594 325.265625 C 418.210938 325.050781 418.042969 324.910156 417.796875 324.84375 Z M 410.808594 323.222656 C 410.179688 322.917969 409.417969 322.867188 408.738281 322.960938 C 408.457031 323.015625 408.175781 323.070312 407.890625 323.125 C 407.355469 323.265625 406.847656 323.480469 406.375 323.773438 C 405.425781 324.464844 404.503906 325.191406 403.65625 326.007812 C 402.828125 326.804688 402.066406 327.675781 401.355469 328.574219 C 401.042969 328.96875 401.0625 329.566406 401.382812 329.9375 C 401.578125 330.148438 401.816406 330.285156 402.089844 330.351562 C 402.40625 330.484375 402.734375 330.550781 403.082031 330.542969 C 403.910156 330.558594 404.78125 330.414062 405.535156 330.0625 C 405.769531 329.941406 406.003906 329.820312 406.238281 329.695312 C 406.621094 329.46875 406.941406 329.167969 407.199219 328.800781 C 407.269531 328.710938 407.347656 328.621094 407.421875 328.53125 C 408.328125 327.488281 409.335938 326.53125 410.429688 325.6875 C 410.859375 325.371094 411.363281 324.960938 411.46875 324.414062 C 411.5625 323.902344 411.265625 323.441406 410.808594 323.222656 Z M 72.222656 310.339844 C 71.941406 309.949219 71.667969 309.558594 71.410156 309.152344 C 71.339844 308.976562 71.21875 308.867188 71.039062 308.824219 C 70.820312 308.707031 70.578125 308.652344 70.320312 308.65625 C 69.605469 308.597656 68.773438 308.734375 68.089844 308.929688 C 67.382812 309.132812 66.621094 309.371094 66.023438 309.808594 C 65.882812 309.921875 65.746094 310.035156 65.605469 310.148438 C 65.398438 310.316406 65.308594 310.527344 65.332031 310.78125 C 66.507812 312.609375 67.894531 314.300781 69.480469 315.789062 C 69.675781 315.914062 69.890625 315.984375 70.121094 315.996094 C 70.425781 316.058594 70.734375 316.070312 71.042969 316.035156 C 71.824219 315.992188 72.6875 315.796875 73.414062 315.511719 C 73.648438 315.414062 73.878906 315.3125 74.113281 315.214844 C 74.476562 315.042969 74.808594 314.820312 75.101562 314.550781 C 75.339844 314.265625 75.523438 313.972656 75.195312 313.664062 C 74.105469 312.648438 73.117188 311.53125 72.222656 310.339844 Z M 63.273438 315.222656 C 62.058594 313.804688 61.058594 312.222656 60.316406 310.511719 C 60.167969 310.171875 59.539062 310.171875 59.269531 310.167969 C 58.546875 310.152344 57.742188 310.304688 57.054688 310.5 C 56.347656 310.699219 55.597656 310.921875 54.972656 311.316406 C 54.761719 311.449219 54.09375 311.808594 54.238281 312.140625 C 55.4375 314.90625 57.320312 317.367188 59.65625 319.277344 C 59.964844 319.53125 60.867188 319.425781 61.183594 319.394531 C 61.96875 319.316406 62.808594 319.121094 63.546875 318.851562 C 63.921875 318.714844 66.160156 317.890625 65.398438 317.265625 C 64.636719 316.640625 63.925781 315.957031 63.273438 315.222656 Z M 51.953125 317.011719 C 51.445312 316.089844 51.167969 315.066406 51.152344 314.011719 C 51.171875 313.671875 51.210938 313.339844 51.289062 313.007812 C 51.398438 312.527344 51.101562 312.195312 50.691406 312.003906 C 50.132812 311.742188 49.289062 311.753906 48.703125 311.84375 C 47.910156 311.96875 47.082031 312.183594 46.398438 312.613281 C 45.949219 312.894531 45.355469 313.273438 45.226562 313.828125 C 44.664062 316.269531 45.488281 318.957031 47.390625 320.609375 C 47.820312 320.984375 48.46875 321.070312 49.011719 321.074219 C 49.78125 321.085938 50.6875 320.898438 51.390625 320.589844 C 51.96875 320.335938 52.6875 320.011719 53.035156 319.457031 C 53.257812 319.105469 53.4375 318.628906 53.050781 318.292969 C 52.621094 317.917969 52.265625 317.484375 51.953125 317.011719 Z M 40.0625 312.601562 C 40.007812 312.058594 39.246094 311.65625 38.820312 311.523438 C 38.125 311.308594 37.210938 311.347656 36.523438 311.554688 C 35.804688 311.769531 35.019531 312.09375 34.519531 312.675781 C 34.394531 312.84375 34.269531 313.011719 34.144531 313.179688 C 33.953125 313.511719 33.898438 313.859375 33.984375 314.230469 C 34.1875 316.324219 34.394531 318.417969 34.597656 320.511719 C 34.652344 321.054688 35.414062 321.453125 35.839844 321.589844 C 36.535156 321.800781 37.449219 321.761719 38.136719 321.558594 C 38.855469 321.34375 39.640625 321.019531 40.140625 320.4375 C 40.261719 320.265625 40.386719 320.097656 40.511719 319.929688 C 40.703125 319.601562 40.757812 319.25 40.675781 318.882812 C 40.472656 316.789062 40.265625 314.695312 40.0625 312.601562 Z M 27.570312 311.648438 C 26.765625 311.691406 25.941406 311.851562 25.195312 312.160156 C 24.628906 312.390625 23.898438 312.675781 23.523438 313.1875 C 22.246094 314.945312 21.371094 316.933594 21.113281 319.097656 C 21.027344 319.289062 21.050781 319.453125 21.183594 319.585938 C 21.277344 319.769531 21.4375 319.886719 21.664062 319.925781 C 22.226562 320.136719 23.054688 320.078125 23.625 319.980469 C 24.414062 319.84375 25.230469 319.632812 25.933594 319.234375 C 26.121094 319.117188 26.3125 319 26.5 318.886719 C 26.78125 318.699219 26.996094 318.457031 27.144531 318.15625 C 27.34375 316.460938 27.921875 314.832031 28.8125 313.378906 C 28.90625 313.242188 28.996094 313.101562 29.09375 312.96875 C 29.328125 312.648438 29.496094 312.304688 29.15625 311.980469 C 28.804688 311.648438 27.988281 311.628906 27.570312 311.648438 Z M 21.042969 311.5 C 19.515625 313.109375 17.992188 314.71875 16.464844 316.328125 C 15.949219 316.875 15.148438 317.167969 14.441406 317.375 C 13.714844 317.589844 12.910156 317.632812 12.167969 317.480469 C 11.707031 317.386719 11.105469 317.089844 10.972656 316.585938 C 10.828125 316.050781 11.226562 315.5625 11.558594 315.210938 C 13.085938 313.601562 14.609375 311.992188 16.136719 310.382812 C 16.652344 309.835938 17.453125 309.542969 18.160156 309.335938 C 18.886719 309.121094 19.691406 309.074219 20.433594 309.230469 C 20.894531 309.324219 21.492188 309.621094 21.628906 310.125 C 21.773438 310.660156 21.375 311.144531 21.042969 311.5" style="fill: rgb(209, 178, 102);"/></g></g></svg>